{
	"asset":{
		"generator":"Khronos glTF Blender I/O v4.0.44",
		"version":"2.0"
	},
	"scene":0,
	"scenes":[
		{
			"name":"Scene",
			"nodes":[
				0,
				1,
				2,
				3,
				4,
				5,
				6,
				7,
				8,
				9,
				10,
				11,
				12,
				13,
				14,
				15,
				16,
				17,
				18,
				19,
				20,
				21,
				22,
				23,
				24,
				25,
				26,
				27,
				28
			]
		}
	],
	"nodes":[
		{
			"name":"\ue814\ue812",
			"scale":[
				0.02539999969303608,
				0.02539999969303608,
				0.02539999969303608
			]
		},
		{
			"name":"\u3000\ue813\ue811",
			"scale":[
				0.02539999969303608,
				0.02539999969303608,
				0.02539999969303608
			]
		},
		{
			"mesh":0,
			"name":"Shape1",
			"scale":[
				0.4301053285598755,
				0.4301053285598755,
				0.4301053285598755
			]
		},
		{
			"name":"\ue814\ue812.001",
			"scale":[
				0.4327656328678131,
				0.4327656328678131,
				0.4327656328678131
			],
			"translation":[
				-2.9347751140594482,
				-0.1408189833164215,
				-1.0122888088226318
			]
		},
		{
			"name":"\u3000\ue813\ue811.001",
			"scale":[
				0.4327656328678131,
				0.4327656328678131,
				0.4327656328678131
			],
			"translation":[
				-2.9347751140594482,
				-0.1408189833164215,
				-1.0122888088226318
			]
		},
		{
			"mesh":1,
			"name":"Shape1.001",
			"scale":[
				0.4290521442890167,
				0.4290521442890167,
				0.4290521442890167
			],
			"translation":[
				-2.9347751140594482,
				-0.14081904292106628,
				-0.9825637936592102
			]
		},
		{
			"name":"Shape2",
			"scale":[
				0.4327656328678131,
				0.4327656328678131,
				0.4327656328678131
			],
			"translation":[
				-2.9347751140594482,
				-0.1408190280199051,
				-1.0122888088226318
			]
		},
		{
			"mesh":2,
			"name":"Shape3",
			"scale":[
				0.4327656328678131,
				0.4327656328678131,
				0.4327656328678131
			],
			"translation":[
				-2.9347751140594482,
				-0.1206028163433075,
				-1.0122888088226318
			]
		},
		{
			"mesh":3,
			"name":"Shape4",
			"scale":[
				0.4327656328678131,
				0.25399285554885864,
				0.4327656328678131
			],
			"translation":[
				-2.9347751140594482,
				-0.0972486212849617,
				-1.0122888088226318
			]
		},
		{
			"mesh":4,
			"name":"Shape6",
			"scale":[
				0.4327656328678131,
				0.4327656328678131,
				0.4327656328678131
			],
			"translation":[
				-2.9347751140594482,
				-0.1206028014421463,
				-1.0122888088226318
			]
		},
		{
			"mesh":5,
			"name":"Shape7",
			"scale":[
				0.4327656328678131,
				0.4327656328678131,
				0.4327656328678131
			],
			"translation":[
				-2.9347751140594482,
				-0.14081910252571106,
				-1.0122888088226318
			]
		},
		{
			"name":"Shape8",
			"scale":[
				0.4327656328678131,
				0.4327656328678131,
				0.4327656328678131
			],
			"translation":[
				-2.9347751140594482,
				-0.14081904292106628,
				-1.0122888088226318
			]
		},
		{
			"name":"Shape9",
			"scale":[
				0.4327656328678131,
				0.4327656328678131,
				0.4327656328678131
			],
			"translation":[
				-2.9347751140594482,
				-0.1408189833164215,
				-1.0122888088226318
			]
		},
		{
			"mesh":6,
			"name":"Shape10",
			"scale":[
				0.4327656328678131,
				0.4327656328678131,
				0.4327656328678131
			],
			"translation":[
				-2.9347751140594482,
				-0.14081904292106628,
				-1.0122888088226318
			]
		},
		{
			"mesh":7,
			"name":"Shape11",
			"scale":[
				0.4327656328678131,
				0.4327656328678131,
				0.4327656328678131
			],
			"translation":[
				-2.9347751140594482,
				-0.14081896841526031,
				-1.0122888088226318
			]
		},
		{
			"name":"Shape12",
			"scale":[
				0.4327656328678131,
				0.4327656328678131,
				0.4327656328678131
			],
			"translation":[
				-2.9347751140594482,
				-0.14081896841526031,
				-1.0122888088226318
			]
		},
		{
			"mesh":8,
			"name":"Shape13",
			"scale":[
				0.4327656328678131,
				0.4327656328678131,
				0.4327656328678131
			],
			"translation":[
				-2.9347751140594482,
				-0.14081896841526031,
				-1.0122888088226318
			]
		},
		{
			"mesh":9,
			"name":"Shape14",
			"scale":[
				0.4327656328678131,
				0.4327656328678131,
				0.4327656328678131
			],
			"translation":[
				-2.9347751140594482,
				-0.1408189833164215,
				-1.0122888088226318
			]
		},
		{
			"mesh":10,
			"name":"Shape15",
			"scale":[
				0.4327656328678131,
				0.4327656328678131,
				0.4327656328678131
			],
			"translation":[
				-2.9347751140594482,
				-0.1408190280199051,
				-1.0122888088226318
			]
		},
		{
			"mesh":11,
			"name":"Shape16",
			"scale":[
				0.4327656328678131,
				0.4327656328678131,
				0.4327656328678131
			],
			"translation":[
				-2.9347751140594482,
				-0.1206028163433075,
				-1.0122888088226318
			]
		},
		{
			"mesh":12,
			"name":"Shape17",
			"scale":[
				0.4327656328678131,
				0.4327656328678131,
				0.4327656328678131
			],
			"translation":[
				-2.9347751140594482,
				-0.1206028014421463,
				-1.0122888088226318
			]
		},
		{
			"name":"Shape18",
			"scale":[
				0.4327656328678131,
				0.4327656328678131,
				0.4327656328678131
			],
			"translation":[
				-2.9347751140594482,
				-0.1408189982175827,
				-1.0122888088226318
			]
		},
		{
			"mesh":13,
			"name":"Shape19",
			"scale":[
				0.4327656328678131,
				0.4327656328678131,
				0.4327656328678131
			],
			"translation":[
				-2.9347751140594482,
				-0.1408189982175827,
				-1.0122888088226318
			]
		},
		{
			"mesh":14,
			"name":"Shape20",
			"scale":[
				0.4327656328678131,
				0.4327656328678131,
				0.4327656328678131
			],
			"translation":[
				-2.9347751140594482,
				-0.1408190280199051,
				-1.0122888088226318
			]
		},
		{
			"mesh":15,
			"name":"Shape21",
			"scale":[
				0.4327656328678131,
				0.4327656328678131,
				0.4327656328678131
			],
			"translation":[
				-2.9347751140594482,
				-0.1408189833164215,
				-1.0122888088226318
			]
		},
		{
			"mesh":16,
			"name":"Shape22",
			"scale":[
				0.4327656328678131,
				0.4327656328678131,
				0.4327656328678131
			],
			"translation":[
				-2.9347751140594482,
				-0.12060278654098511,
				-1.0122888088226318
			]
		},
		{
			"mesh":17,
			"name":"Shape23",
			"scale":[
				0.4327656328678131,
				0.4327656328678131,
				0.4327656328678131
			],
			"translation":[
				-2.9347751140594482,
				-0.12060278654098511,
				-1.0122888088226318
			]
		},
		{
			"mesh":18,
			"name":"Shape24",
			"scale":[
				0.4327656328678131,
				0.4327656328678131,
				0.4327656328678131
			],
			"translation":[
				-2.9347751140594482,
				-0.1408190131187439,
				-1.0122888088226318
			]
		},
		{
			"mesh":19,
			"name":"\u67f1\u4f53",
			"scale":[
				0.49921855330467224,
				0.02174731343984604,
				0.49921855330467224
			],
			"translation":[
				-2.2236125469207764,
				-0.06504648923873901,
				0.5699065327644348
			]
		}
	],
	"materials":[
		{
			"doubleSided":true,
			"name":"Cut Glass",
			"pbrMetallicRoughness":{}
		},
		{
			"doubleSided":true,
			"name":"Blob",
			"pbrMetallicRoughness":{}
		},
		{
			"doubleSided":true,
			"name":"Glide",
			"pbrMetallicRoughness":{}
		}
	],
	"meshes":[
		{
			"name":"\u7f51\u683c",
			"primitives":[
				{
					"attributes":{
						"POSITION":0,
						"NORMAL":1
					},
					"indices":2,
					"material":0
				}
			]
		},
		{
			"name":"\u7f51\u683c.001",
			"primitives":[
				{
					"attributes":{
						"POSITION":3,
						"NORMAL":4
					},
					"indices":5,
					"material":1
				}
			]
		},
		{
			"name":"\u7f51\u683c.002",
			"primitives":[
				{
					"attributes":{
						"POSITION":6,
						"NORMAL":7
					},
					"indices":8,
					"material":2
				}
			]
		},
		{
			"name":"\u7f51\u683c.003",
			"primitives":[
				{
					"attributes":{
						"POSITION":9,
						"NORMAL":10
					},
					"indices":11,
					"material":2
				}
			]
		},
		{
			"name":"\u7f51\u683c.005",
			"primitives":[
				{
					"attributes":{
						"POSITION":12,
						"NORMAL":13
					},
					"indices":14,
					"material":2
				}
			]
		},
		{
			"name":"\u7f51\u683c.006",
			"primitives":[
				{
					"attributes":{
						"POSITION":15,
						"NORMAL":16
					},
					"indices":17,
					"material":1
				}
			]
		},
		{
			"name":"\u7f51\u683c.007",
			"primitives":[
				{
					"attributes":{
						"POSITION":18,
						"NORMAL":19
					},
					"indices":20
				}
			]
		},
		{
			"name":"\u7f51\u683c.008",
			"primitives":[
				{
					"attributes":{
						"POSITION":21,
						"NORMAL":22
					},
					"indices":23,
					"material":1
				}
			]
		},
		{
			"name":"\u7f51\u683c.009",
			"primitives":[
				{
					"attributes":{
						"POSITION":24,
						"NORMAL":25
					},
					"indices":26,
					"material":1
				}
			]
		},
		{
			"name":"\u7f51\u683c.010",
			"primitives":[
				{
					"attributes":{
						"POSITION":27,
						"NORMAL":28
					},
					"indices":29,
					"material":1
				}
			]
		},
		{
			"name":"\u7f51\u683c.011",
			"primitives":[
				{
					"attributes":{
						"POSITION":30,
						"NORMAL":31
					},
					"indices":32,
					"material":0
				}
			]
		},
		{
			"name":"\u7f51\u683c.012",
			"primitives":[
				{
					"attributes":{
						"POSITION":33,
						"NORMAL":34
					},
					"indices":35,
					"material":2
				}
			]
		},
		{
			"name":"\u7f51\u683c.013",
			"primitives":[
				{
					"attributes":{
						"POSITION":36,
						"NORMAL":37
					},
					"indices":38,
					"material":2
				}
			]
		},
		{
			"name":"\u7f51\u683c.014",
			"primitives":[
				{
					"attributes":{
						"POSITION":39,
						"NORMAL":40
					},
					"indices":41,
					"material":1
				}
			]
		},
		{
			"name":"\u7f51\u683c.015",
			"primitives":[
				{
					"attributes":{
						"POSITION":42,
						"NORMAL":43
					},
					"indices":44,
					"material":1
				}
			]
		},
		{
			"name":"\u7f51\u683c.016",
			"primitives":[
				{
					"attributes":{
						"POSITION":45,
						"NORMAL":46
					},
					"indices":47,
					"material":1
				}
			]
		},
		{
			"name":"\u7f51\u683c.017",
			"primitives":[
				{
					"attributes":{
						"POSITION":48,
						"NORMAL":49
					},
					"indices":50,
					"material":2
				}
			]
		},
		{
			"name":"\u7f51\u683c.018",
			"primitives":[
				{
					"attributes":{
						"POSITION":51,
						"NORMAL":52
					},
					"indices":53,
					"material":2
				}
			]
		},
		{
			"name":"\u7f51\u683c.019",
			"primitives":[
				{
					"attributes":{
						"POSITION":54,
						"NORMAL":55
					},
					"indices":56,
					"material":1
				}
			]
		},
		{
			"name":"\u67f1\u4f53",
			"primitives":[
				{
					"attributes":{
						"POSITION":57,
						"NORMAL":58,
						"TEXCOORD_0":59
					},
					"indices":60,
					"material":1
				}
			]
		}
	],
	"accessors":[
		{
			"bufferView":0,
			"componentType":5126,
			"count":22061,
			"max":[
				12.83449935913086,
				0.2788677513599396,
				5.588225364685059
			],
			"min":[
				-11.983970642089844,
				-0.27886730432510376,
				-4.291211128234863
			],
			"type":"VEC3"
		},
		{
			"bufferView":1,
			"componentType":5126,
			"count":22061,
			"type":"VEC3"
		},
		{
			"bufferView":2,
			"componentType":5123,
			"count":78552,
			"type":"SCALAR"
		},
		{
			"bufferView":3,
			"componentType":5126,
			"count":264,
			"max":[
				10.315553665161133,
				0.10000000894069672,
				6.555555820465088
			],
			"min":[
				0.45833340287208557,
				-1.696329654521378e-08,
				1.3711943626403809
			],
			"type":"VEC3"
		},
		{
			"bufferView":4,
			"componentType":5126,
			"count":264,
			"type":"VEC3"
		},
		{
			"bufferView":5,
			"componentType":5123,
			"count":684,
			"type":"SCALAR"
		},
		{
			"bufferView":6,
			"componentType":5126,
			"count":66,
			"max":[
				0.9027777910232544,
				0.10000000149011612,
				5.5
			],
			"min":[
				-1.75,
				0,
				3.194444417953491
			],
			"type":"VEC3"
		},
		{
			"bufferView":7,
			"componentType":5126,
			"count":66,
			"type":"VEC3"
		},
		{
			"bufferView":8,
			"componentType":5123,
			"count":156,
			"type":"SCALAR"
		},
		{
			"bufferView":9,
			"componentType":5126,
			"count":24,
			"max":[
				3.694444417953491,
				0.10000000149011612,
				6.340277671813965
			],
			"min":[
				0.8888888955116272,
				0,
				4.486111164093018
			],
			"type":"VEC3"
		},
		{
			"bufferView":10,
			"componentType":5126,
			"count":24,
			"type":"VEC3"
		},
		{
			"bufferView":11,
			"componentType":5123,
			"count":36,
			"type":"SCALAR"
		},
		{
			"bufferView":12,
			"componentType":5126,
			"count":104,
			"max":[
				16.36111068725586,
				0.12965869903564453,
				5.791666507720947
			],
			"min":[
				10.55555534362793,
				-4.125317865089073e-09,
				1.7054874897003174
			],
			"type":"VEC3"
		},
		{
			"bufferView":13,
			"componentType":5126,
			"count":104,
			"type":"VEC3"
		},
		{
			"bufferView":14,
			"componentType":5123,
			"count":252,
			"type":"SCALAR"
		},
		{
			"bufferView":15,
			"componentType":5126,
			"count":122,
			"max":[
				18.89583396911621,
				0.10000000149011612,
				7.81944465637207
			],
			"min":[
				15.979166984558105,
				0,
				5.375
			],
			"type":"VEC3"
		},
		{
			"bufferView":16,
			"componentType":5126,
			"count":122,
			"type":"VEC3"
		},
		{
			"bufferView":17,
			"componentType":5123,
			"count":300,
			"type":"SCALAR"
		},
		{
			"bufferView":18,
			"componentType":5126,
			"count":42,
			"max":[
				11.63888931274414,
				0.10000000149011612,
				3.722222328186035
			],
			"min":[
				10.56944465637207,
				0,
				2.4861111640930176
			],
			"type":"VEC3"
		},
		{
			"bufferView":19,
			"componentType":5126,
			"count":42,
			"type":"VEC3"
		},
		{
			"bufferView":20,
			"componentType":5123,
			"count":96,
			"type":"SCALAR"
		},
		{
			"bufferView":21,
			"componentType":5126,
			"count":82,
			"max":[
				18.87803077697754,
				0.10000000149011612,
				-0.13090042769908905
			],
			"min":[
				7.86724328994751,
				0,
				-1.2420110702514648
			],
			"type":"VEC3"
		},
		{
			"bufferView":22,
			"componentType":5126,
			"count":82,
			"type":"VEC3"
		},
		{
			"bufferView":23,
			"componentType":5123,
			"count":192,
			"type":"SCALAR"
		},
		{
			"bufferView":24,
			"componentType":5126,
			"count":72,
			"max":[
				0.409722238779068,
				0.10000000149011612,
				0.2222222238779068
			],
			"min":[
				-5.171201705932617,
				0,
				-1.2430555820465088
			],
			"type":"VEC3"
		},
		{
			"bufferView":25,
			"componentType":5126,
			"count":72,
			"type":"VEC3"
		},
		{
			"bufferView":26,
			"componentType":5123,
			"count":144,
			"type":"SCALAR"
		},
		{
			"bufferView":27,
			"componentType":5126,
			"count":44,
			"max":[
				4.7771124839782715,
				0.10000000149011612,
				0.9485833048820496
			],
			"min":[
				2.6305418014526367,
				0,
				0.20862777531147003
			],
			"type":"VEC3"
		},
		{
			"bufferView":28,
			"componentType":5126,
			"count":44,
			"type":"VEC3"
		},
		{
			"bufferView":29,
			"componentType":5123,
			"count":84,
			"type":"SCALAR"
		},
		{
			"bufferView":30,
			"componentType":5126,
			"count":112,
			"max":[
				4.56944465637207,
				0.10000000149011612,
				2.847222328186035
			],
			"min":[
				3.180555582046509,
				0,
				1.75
			],
			"type":"VEC3"
		},
		{
			"bufferView":31,
			"componentType":5126,
			"count":112,
			"type":"VEC3"
		},
		{
			"bufferView":32,
			"componentType":5123,
			"count":324,
			"type":"SCALAR"
		},
		{
			"bufferView":33,
			"componentType":5126,
			"count":88,
			"max":[
				5.430555820465088,
				0.10000000149011612,
				5.5690016746521
			],
			"min":[
				3.7083332538604736,
				0,
				3.3333332538604736
			],
			"type":"VEC3"
		},
		{
			"bufferView":34,
			"componentType":5126,
			"count":88,
			"type":"VEC3"
		},
		{
			"bufferView":35,
			"componentType":5123,
			"count":216,
			"type":"SCALAR"
		},
		{
			"bufferView":36,
			"componentType":5126,
			"count":48,
			"max":[
				7.9717888832092285,
				0.10000000149011612,
				4.625
			],
			"min":[
				5.930555820465088,
				0,
				2.305555582046509
			],
			"type":"VEC3"
		},
		{
			"bufferView":37,
			"componentType":5126,
			"count":48,
			"type":"VEC3"
		},
		{
			"bufferView":38,
			"componentType":5123,
			"count":108,
			"type":"SCALAR"
		},
		{
			"bufferView":39,
			"componentType":5126,
			"count":100,
			"max":[
				17.43055534362793,
				0.10000000149011612,
				1.2222222089767456
			],
			"min":[
				12.76388931274414,
				0,
				0.1666666716337204
			],
			"type":"VEC3"
		},
		{
			"bufferView":40,
			"componentType":5126,
			"count":100,
			"type":"VEC3"
		},
		{
			"bufferView":41,
			"componentType":5123,
			"count":216,
			"type":"SCALAR"
		},
		{
			"bufferView":42,
			"componentType":5126,
			"count":46,
			"max":[
				-2.069444417953491,
				0.10000000149011612,
				5.083333492279053
			],
			"min":[
				-3.319444417953491,
				0,
				0.8055555820465088
			],
			"type":"VEC3"
		},
		{
			"bufferView":43,
			"componentType":5126,
			"count":46,
			"type":"VEC3"
		},
		{
			"bufferView":44,
			"componentType":5123,
			"count":108,
			"type":"SCALAR"
		},
		{
			"bufferView":45,
			"componentType":5126,
			"count":72,
			"max":[
				12.51388931274414,
				0.10000000149011612,
				0.8611111044883728
			],
			"min":[
				10.69444465637207,
				0,
				0.25
			],
			"type":"VEC3"
		},
		{
			"bufferView":46,
			"componentType":5126,
			"count":72,
			"type":"VEC3"
		},
		{
			"bufferView":47,
			"componentType":5123,
			"count":156,
			"type":"SCALAR"
		},
		{
			"bufferView":48,
			"componentType":5126,
			"count":56,
			"max":[
				10.236111640930176,
				0.10000000149011612,
				4.409869194030762
			],
			"min":[
				8.833333015441895,
				0,
				1.7526596784591675
			],
			"type":"VEC3"
		},
		{
			"bufferView":49,
			"componentType":5126,
			"count":56,
			"type":"VEC3"
		},
		{
			"bufferView":50,
			"componentType":5123,
			"count":132,
			"type":"SCALAR"
		},
		{
			"bufferView":51,
			"componentType":5126,
			"count":116,
			"max":[
				13.177043914794922,
				0.10000000149011612,
				4.052316188812256
			],
			"min":[
				11.527777671813965,
				0,
				1.5694444179534912
			],
			"type":"VEC3"
		},
		{
			"bufferView":52,
			"componentType":5126,
			"count":116,
			"type":"VEC3"
		},
		{
			"bufferView":53,
			"componentType":5123,
			"count":300,
			"type":"SCALAR"
		},
		{
			"bufferView":54,
			"componentType":5126,
			"count":50,
			"max":[
				3.4166667461395264,
				0.10000000149011612,
				2.472222328186035
			],
			"min":[
				1.9861111640930176,
				0,
				1.3333333730697632
			],
			"type":"VEC3"
		},
		{
			"bufferView":55,
			"componentType":5126,
			"count":50,
			"type":"VEC3"
		},
		{
			"bufferView":56,
			"componentType":5123,
			"count":96,
			"type":"SCALAR"
		},
		{
			"bufferView":57,
			"componentType":5126,
			"count":192,
			"max":[
				1,
				1,
				1
			],
			"min":[
				-1,
				-1,
				-1
			],
			"type":"VEC3"
		},
		{
			"bufferView":58,
			"componentType":5126,
			"count":192,
			"type":"VEC3"
		},
		{
			"bufferView":59,
			"componentType":5126,
			"count":192,
			"type":"VEC2"
		},
		{
			"bufferView":60,
			"componentType":5123,
			"count":372,
			"type":"SCALAR"
		}
	],
	"bufferViews":[
		{
			"buffer":0,
			"byteLength":264732,
			"byteOffset":0,
			"target":34962
		},
		{
			"buffer":0,
			"byteLength":264732,
			"byteOffset":264732,
			"target":34962
		},
		{
			"buffer":0,
			"byteLength":157104,
			"byteOffset":529464,
			"target":34963
		},
		{
			"buffer":0,
			"byteLength":3168,
			"byteOffset":686568,
			"target":34962
		},
		{
			"buffer":0,
			"byteLength":3168,
			"byteOffset":689736,
			"target":34962
		},
		{
			"buffer":0,
			"byteLength":1368,
			"byteOffset":692904,
			"target":34963
		},
		{
			"buffer":0,
			"byteLength":792,
			"byteOffset":694272,
			"target":34962
		},
		{
			"buffer":0,
			"byteLength":792,
			"byteOffset":695064,
			"target":34962
		},
		{
			"buffer":0,
			"byteLength":312,
			"byteOffset":695856,
			"target":34963
		},
		{
			"buffer":0,
			"byteLength":288,
			"byteOffset":696168,
			"target":34962
		},
		{
			"buffer":0,
			"byteLength":288,
			"byteOffset":696456,
			"target":34962
		},
		{
			"buffer":0,
			"byteLength":72,
			"byteOffset":696744,
			"target":34963
		},
		{
			"buffer":0,
			"byteLength":1248,
			"byteOffset":696816,
			"target":34962
		},
		{
			"buffer":0,
			"byteLength":1248,
			"byteOffset":698064,
			"target":34962
		},
		{
			"buffer":0,
			"byteLength":504,
			"byteOffset":699312,
			"target":34963
		},
		{
			"buffer":0,
			"byteLength":1464,
			"byteOffset":699816,
			"target":34962
		},
		{
			"buffer":0,
			"byteLength":1464,
			"byteOffset":701280,
			"target":34962
		},
		{
			"buffer":0,
			"byteLength":600,
			"byteOffset":702744,
			"target":34963
		},
		{
			"buffer":0,
			"byteLength":504,
			"byteOffset":703344,
			"target":34962
		},
		{
			"buffer":0,
			"byteLength":504,
			"byteOffset":703848,
			"target":34962
		},
		{
			"buffer":0,
			"byteLength":192,
			"byteOffset":704352,
			"target":34963
		},
		{
			"buffer":0,
			"byteLength":984,
			"byteOffset":704544,
			"target":34962
		},
		{
			"buffer":0,
			"byteLength":984,
			"byteOffset":705528,
			"target":34962
		},
		{
			"buffer":0,
			"byteLength":384,
			"byteOffset":706512,
			"target":34963
		},
		{
			"buffer":0,
			"byteLength":864,
			"byteOffset":706896,
			"target":34962
		},
		{
			"buffer":0,
			"byteLength":864,
			"byteOffset":707760,
			"target":34962
		},
		{
			"buffer":0,
			"byteLength":288,
			"byteOffset":708624,
			"target":34963
		},
		{
			"buffer":0,
			"byteLength":528,
			"byteOffset":708912,
			"target":34962
		},
		{
			"buffer":0,
			"byteLength":528,
			"byteOffset":709440,
			"target":34962
		},
		{
			"buffer":0,
			"byteLength":168,
			"byteOffset":709968,
			"target":34963
		},
		{
			"buffer":0,
			"byteLength":1344,
			"byteOffset":710136,
			"target":34962
		},
		{
			"buffer":0,
			"byteLength":1344,
			"byteOffset":711480,
			"target":34962
		},
		{
			"buffer":0,
			"byteLength":648,
			"byteOffset":712824,
			"target":34963
		},
		{
			"buffer":0,
			"byteLength":1056,
			"byteOffset":713472,
			"target":34962
		},
		{
			"buffer":0,
			"byteLength":1056,
			"byteOffset":714528,
			"target":34962
		},
		{
			"buffer":0,
			"byteLength":432,
			"byteOffset":715584,
			"target":34963
		},
		{
			"buffer":0,
			"byteLength":576,
			"byteOffset":716016,
			"target":34962
		},
		{
			"buffer":0,
			"byteLength":576,
			"byteOffset":716592,
			"target":34962
		},
		{
			"buffer":0,
			"byteLength":216,
			"byteOffset":717168,
			"target":34963
		},
		{
			"buffer":0,
			"byteLength":1200,
			"byteOffset":717384,
			"target":34962
		},
		{
			"buffer":0,
			"byteLength":1200,
			"byteOffset":718584,
			"target":34962
		},
		{
			"buffer":0,
			"byteLength":432,
			"byteOffset":719784,
			"target":34963
		},
		{
			"buffer":0,
			"byteLength":552,
			"byteOffset":720216,
			"target":34962
		},
		{
			"buffer":0,
			"byteLength":552,
			"byteOffset":720768,
			"target":34962
		},
		{
			"buffer":0,
			"byteLength":216,
			"byteOffset":721320,
			"target":34963
		},
		{
			"buffer":0,
			"byteLength":864,
			"byteOffset":721536,
			"target":34962
		},
		{
			"buffer":0,
			"byteLength":864,
			"byteOffset":722400,
			"target":34962
		},
		{
			"buffer":0,
			"byteLength":312,
			"byteOffset":723264,
			"target":34963
		},
		{
			"buffer":0,
			"byteLength":672,
			"byteOffset":723576,
			"target":34962
		},
		{
			"buffer":0,
			"byteLength":672,
			"byteOffset":724248,
			"target":34962
		},
		{
			"buffer":0,
			"byteLength":264,
			"byteOffset":724920,
			"target":34963
		},
		{
			"buffer":0,
			"byteLength":1392,
			"byteOffset":725184,
			"target":34962
		},
		{
			"buffer":0,
			"byteLength":1392,
			"byteOffset":726576,
			"target":34962
		},
		{
			"buffer":0,
			"byteLength":600,
			"byteOffset":727968,
			"target":34963
		},
		{
			"buffer":0,
			"byteLength":600,
			"byteOffset":728568,
			"target":34962
		},
		{
			"buffer":0,
			"byteLength":600,
			"byteOffset":729168,
			"target":34962
		},
		{
			"buffer":0,
			"byteLength":192,
			"byteOffset":729768,
			"target":34963
		},
		{
			"buffer":0,
			"byteLength":2304,
			"byteOffset":729960,
			"target":34962
		},
		{
			"buffer":0,
			"byteLength":2304,
			"byteOffset":732264,
			"target":34962
		},
		{
			"buffer":0,
			"byteLength":1536,
			"byteOffset":734568,
			"target":34962
		},
		{
			"buffer":0,
			"byteLength":744,
			"byteOffset":736104,
			"target":34963
		}
	],
	"buffers":[
		{
			"byteLength":736848,
			"uri":"3dShading.bin"
		}
	]
}
